<svg xmlns="http://www.w3.org/2000/svg" viewBox="0 18.75 157.5 37.040000915527344" data-asc="0.9052734375" width="157.5" height="37.040000915527344"><defs/><g fill="#000000"><g transform="translate(0, 0)"><path d="M0 45.26L0 19.34L3.93 19.34L3.93 22.97Q5.15 21.07 7.18 19.91Q9.20 18.75 11.79 18.75Q14.67 18.75 16.52 19.95Q18.36 21.14 19.12 23.29Q22.19 18.75 27.12 18.75Q30.98 18.75 33.06 20.89Q35.13 23.02 35.13 27.47L35.13 45.26L30.76 45.26L30.76 28.93Q30.76 26.29 30.33 25.13Q29.91 23.97 28.78 23.27Q27.66 22.56 26.15 22.56Q23.41 22.56 21.61 24.38Q19.80 26.20 19.80 30.20L19.80 45.26L15.41 45.26L15.41 28.42Q15.41 25.49 14.33 24.02Q13.26 22.56 10.82 22.56Q8.96 22.56 7.39 23.54Q5.81 24.51 5.10 26.39Q4.39 28.27 4.39 31.81L4.39 45.26L0 45.26ZM59.40 36.91L63.94 37.48Q62.87 41.46 59.96 43.65Q57.06 45.85 52.54 45.85Q46.85 45.85 43.52 42.35Q40.19 38.84 40.19 32.52Q40.19 25.98 43.55 22.36Q46.92 18.75 52.29 18.75Q57.50 18.75 60.79 22.29Q64.09 25.83 64.09 32.25Q64.09 32.64 64.06 33.42L44.73 33.42Q44.97 37.70 47.14 39.97Q49.32 42.24 52.56 42.24Q54.98 42.24 56.69 40.97Q58.40 39.70 59.40 36.91M44.97 29.81L59.45 29.81Q59.16 26.54 57.79 24.90Q55.69 22.36 52.34 22.36Q49.32 22.36 47.25 24.39Q45.19 26.42 44.97 29.81ZM69.46 45.26L69.46 19.34L73.41 19.34L73.41 23.02Q76.27 18.75 81.67 18.75Q84.01 18.75 85.97 19.59Q87.94 20.43 88.92 21.80Q89.89 23.17 90.28 25.05Q90.53 26.27 90.53 29.32L90.53 45.26L86.13 45.26L86.13 29.49Q86.13 26.81 85.62 25.48Q85.11 24.15 83.80 23.35Q82.50 22.56 80.74 22.56Q77.93 22.56 75.89 24.34Q73.85 26.12 73.85 31.10L73.85 45.26L69.46 45.26ZM96.46 47.41L100.73 48.05Q101.00 50.02 102.22 50.93Q103.86 52.15 106.69 52.15Q109.74 52.15 111.40 50.93Q113.06 49.71 113.65 47.51Q113.99 46.17 113.96 41.87Q111.08 45.26 106.79 45.26Q101.44 45.26 98.51 41.41Q95.58 37.55 95.58 32.15Q95.58 28.44 96.92 25.31Q98.27 22.17 100.82 20.46Q103.37 18.75 106.81 18.75Q111.40 18.75 114.38 22.46L114.38 19.34L118.43 19.34L118.43 41.75Q118.43 47.80 117.20 50.33Q115.97 52.86 113.29 54.32Q110.62 55.79 106.71 55.79Q102.08 55.79 99.22 53.70Q96.36 51.61 96.46 47.41M100.10 31.84Q100.10 36.94 102.12 39.28Q104.15 41.63 107.20 41.63Q110.23 41.63 112.28 39.29Q114.33 36.96 114.33 31.98Q114.33 27.22 112.22 24.80Q110.11 22.39 107.13 22.39Q104.20 22.39 102.15 24.77Q100.10 27.15 100.10 31.84ZM129.86 45.26L121.92 19.34L126.46 19.34L130.59 34.30L132.13 39.87Q132.23 39.45 133.47 34.52L137.60 19.34L142.11 19.34L146.00 34.38L147.29 39.33L148.78 34.33L153.22 19.34L157.50 19.34L149.39 45.26L144.82 45.26L140.70 29.74L139.70 25.32L134.45 45.26L129.86 45.26Z"/></g></g></svg>